<?xml version="1.0" standalone="no"?>
<!DOCTYPE svg PUBLIC "-//W3C//DTD SVG 20010904//EN"
 "http://www.w3.org/TR/2001/REC-SVG-20010904/DTD/svg10.dtd">
<svg version="1.0" xmlns="http://www.w3.org/2000/svg"
 width="960.000000pt" height="960.000000pt" viewBox="0 0 960.000000 960.000000"
 preserveAspectRatio="xMidYMid meet">
<metadata>
Created by potrace 1.14, written by Peter Selinger 2001-2017
</metadata>
<g transform="translate(0.000000,960.000000) scale(0.100000,-0.100000)"
fill="#000000" stroke="none">
<path d="M4390 9509 c-1107 -83 -2108 -520 -2903 -1268 -1274 -1197 -1777
-2982 -1321 -4686 128 -476 334 -933 611 -1354 764 -1159 1988 -1916 3368
-2085 454 -56 1026 -46 1488 24 749 114 1524 448 2130 919 236 182 522 454
703 666 864 1015 1258 2322 1098 3645 -111 930 -487 1787 -1098 2505 -113 133
-364 383 -501 501 -378 323 -785 577 -1230 767 -486 206 -991 326 -1550 367
-164 12 -629 11 -795 -1z m750 -319 c967 -59 1879 -426 2605 -1049 750 -644
1264 -1526 1449 -2486 111 -578 111 -1132 0 -1710 -196 -1015 -759 -1940
-1574 -2588 -712 -566 -1561 -890 -2480 -947 -439 -27 -875 -1 -1275 76 -1318
254 -2459 1118 -3069 2323 -343 678 -508 1458 -467 2208 13 237 27 360 67 583
246 1371 1147 2553 2408 3160 709 342 1472 482 2336 430z"/>
<path d="M4242 7003 c-12 -32 -64 -182 -117 -333 -53 -151 -108 -306 -122
-345 -14 -38 -42 -119 -63 -180 -21 -60 -122 -348 -225 -640 -103 -291 -204
-579 -225 -640 -21 -60 -77 -220 -125 -355 -48 -135 -104 -294 -125 -355 -21
-60 -75 -213 -120 -340 -45 -126 -99 -279 -120 -340 -21 -60 -77 -220 -125
-355 -85 -240 -165 -471 -165 -477 0 -2 193 -3 429 -3 l429 0 177 533 c98 292
180 538 183 545 3 10 175 12 834 10 l830 -3 178 -533 c99 -293 182 -537 185
-542 8 -12 855 -14 855 -2 0 5 -36 112 -81 238 -44 126 -98 279 -119 339 -21
61 -75 214 -120 340 -45 127 -97 273 -115 325 -18 52 -90 257 -160 455 -69
198 -151 430 -181 515 -30 85 -72 205 -94 265 -22 61 -76 214 -120 340 -44
127 -98 280 -120 340 -76 213 -440 1247 -440 1251 0 2 -224 4 -499 4 l-498 0
-21 -57z m560 -930 c186 -554 562 -1671 565 -1680 4 -10 -121 -13 -607 -13
-579 0 -612 1 -605 18 4 9 138 407 297 885 229 684 294 867 307 867 12 0 24
-22 43 -77z"/>
</g>
</svg>
