<svg width="318" height="30" viewBox="0 0 318 30" fill="none" xmlns="http://www.w3.org/2000/svg">
<path d="M0.836648 1.36364H6.49077L13.2514 13.5895H13.5213L20.282 1.36364H25.9361L15.8828 18.6903V29H10.8899V18.6903L0.836648 1.36364ZM30.2104 29H24.8667L34.5961 1.36364H40.7765L50.5194 29H45.1756L37.7942 7.03125H37.5783L30.2104 29ZM30.3858 18.1641H44.9597V22.1854H30.3858V18.1641ZM76.8704 1.36364V29H72.4173L59.3952 10.1754H59.1658V29H54.1594V1.36364H58.6396L71.6481 20.2017H71.891V1.36364H76.8704ZM85.8745 29H80.5307L90.2601 1.36364H96.4405L106.183 29H100.84L93.4583 7.03125H93.2424L85.8745 29ZM86.0499 18.1641H100.624V22.1854H86.0499V18.1641ZM124.256 1.36364V29H119.249V1.36364H124.256ZM152.388 1.36364V29H147.935L134.913 10.1754H134.683V29H129.677V1.36364H134.157L147.166 20.2017H147.409V1.36364H152.388ZM156.629 5.56037V1.36364H178.678V5.56037H170.136V29H165.17V5.56037H156.629ZM182.929 29V1.36364H200.903V5.56037H187.935V13.0632H199.972V17.2599H187.935V24.8033H201.011V29H182.929ZM206.011 29V1.36364H216.375C218.498 1.36364 220.279 1.73248 221.718 2.47017C223.167 3.20786 224.26 4.24242 224.998 5.57386C225.744 6.89631 226.118 8.43916 226.118 10.2024C226.118 11.9747 225.74 13.513 224.984 14.8175C224.237 16.1129 223.135 17.116 221.678 17.8267C220.221 18.5284 218.43 18.8793 216.307 18.8793H208.926V14.723H215.632C216.874 14.723 217.891 14.5521 218.682 14.2102C219.474 13.8594 220.059 13.3511 220.436 12.6854C220.823 12.0107 221.017 11.183 221.017 10.2024C221.017 9.22183 220.823 8.38518 220.436 7.69247C220.05 6.99077 219.46 6.45999 218.669 6.10014C217.877 5.7313 216.856 5.54688 215.605 5.54688H211.017V29H206.011ZM220.288 16.4773L227.13 29H221.543L214.823 16.4773H220.288ZM235.732 1.36364V29H230.726V1.36364H235.732ZM265.848 15.1818C265.848 18.1596 265.29 20.71 264.175 22.8331C263.068 24.9472 261.557 26.5665 259.641 27.6911C257.734 28.8156 255.57 29.3778 253.15 29.3778C250.73 29.3778 248.562 28.8156 246.646 27.6911C244.739 26.5575 243.227 24.9337 242.112 22.8196C241.005 20.6965 240.452 18.1506 240.452 15.1818C240.452 12.2041 241.005 9.65814 242.112 7.54403C243.227 5.42093 244.739 3.79711 246.646 2.67258C248.562 1.54806 250.73 0.985794 253.15 0.985794C255.57 0.985794 257.734 1.54806 259.641 2.67258C261.557 3.79711 263.068 5.42093 264.175 7.54403C265.29 9.65814 265.848 12.2041 265.848 15.1818ZM260.815 15.1818C260.815 13.0857 260.486 11.3179 259.83 9.87855C259.182 8.43016 258.282 7.33712 257.131 6.59943C255.979 5.85275 254.652 5.4794 253.15 5.4794C251.648 5.4794 250.321 5.85275 249.169 6.59943C248.018 7.33712 247.114 8.43016 246.457 9.87855C245.809 11.3179 245.485 13.0857 245.485 15.1818C245.485 17.2779 245.809 19.0502 246.457 20.4986C247.114 21.938 248.018 23.031 249.169 23.7777C250.321 24.5154 251.648 24.8842 253.15 24.8842C254.652 24.8842 255.979 24.5154 257.131 23.7777C258.282 23.031 259.182 21.938 259.83 20.4986C260.486 19.0502 260.815 17.2779 260.815 15.1818ZM270.581 29V1.36364H280.945C283.068 1.36364 284.849 1.73248 286.289 2.47017C287.737 3.20786 288.83 4.24242 289.568 5.57386C290.315 6.89631 290.688 8.43916 290.688 10.2024C290.688 11.9747 290.31 13.513 289.554 14.8175C288.808 16.1129 287.706 17.116 286.248 17.8267C284.791 18.5284 283.001 18.8793 280.877 18.8793H273.496V14.723H280.203C281.444 14.723 282.461 14.5521 283.252 14.2102C284.044 13.8594 284.629 13.3511 285.007 12.6854C285.394 12.0107 285.587 11.183 285.587 10.2024C285.587 9.22183 285.394 8.38518 285.007 7.69247C284.62 6.99077 284.031 6.45999 283.239 6.10014C282.447 5.7313 281.426 5.54688 280.176 5.54688H275.588V29H270.581ZM284.858 16.4773L291.7 29H286.113L279.393 16.4773H284.858ZM310.315 8.96094C310.189 7.78243 309.659 6.86482 308.723 6.2081C307.796 5.55137 306.591 5.22301 305.107 5.22301C304.063 5.22301 303.168 5.38044 302.421 5.69531C301.674 6.01018 301.103 6.4375 300.707 6.97727C300.312 7.51705 300.109 8.13329 300.1 8.82599C300.1 9.40175 300.231 9.90104 300.491 10.3239C300.761 10.7467 301.126 11.1065 301.585 11.4034C302.043 11.6913 302.552 11.9342 303.109 12.1321C303.667 12.33 304.229 12.4964 304.796 12.6314L307.387 13.2791C308.431 13.522 309.434 13.8504 310.396 14.2642C311.368 14.678 312.236 15.1998 313.001 15.8295C313.774 16.4593 314.386 17.2195 314.836 18.1101C315.286 19.0007 315.511 20.0443 315.511 21.2408C315.511 22.8601 315.097 24.286 314.269 25.5185C313.442 26.742 312.245 27.7 310.68 28.3928C309.123 29.0765 307.239 29.4183 305.026 29.4183C302.875 29.4183 301.009 29.0855 299.425 28.4197C297.851 27.754 296.619 26.7824 295.728 25.505C294.846 24.2275 294.37 22.6712 294.298 20.8359H299.223C299.295 21.7985 299.592 22.5992 300.114 23.2379C300.635 23.8767 301.315 24.3535 302.151 24.6683C302.997 24.9832 303.942 25.1406 304.985 25.1406C306.074 25.1406 307.027 24.9787 307.846 24.6548C308.674 24.322 309.321 23.8632 309.789 23.2784C310.257 22.6847 310.495 21.992 310.504 21.2003C310.495 20.4806 310.284 19.8868 309.87 19.419C309.456 18.9422 308.876 18.5464 308.129 18.2315C307.392 17.9077 306.528 17.6198 305.538 17.3679L302.394 16.5582C300.118 15.9735 298.319 15.0874 296.996 13.8999C295.683 12.7034 295.026 11.1155 295.026 9.13636C295.026 7.50805 295.467 6.08215 296.349 4.85866C297.239 3.63518 298.449 2.68608 299.979 2.01136C301.508 1.32765 303.24 0.985794 305.174 0.985794C307.135 0.985794 308.853 1.32765 310.329 2.01136C311.813 2.68608 312.978 3.62618 313.824 4.83167C314.67 6.02817 315.106 7.40459 315.133 8.96094H310.315Z" fill="#203844"/>
</svg>
