<svg width="96" height="29" viewBox="0 0 96 29" fill="none" xmlns="http://www.w3.org/2000/svg">
<g clip-path="url(#clip0_653_1396)">
<path d="M1.064 1.728H46.064L30.188 28.62C27.164 23.508 24.176 18.612 21.188 13.536L20.396 14.292L22.952 18.612L16.94 28.62L1.064 1.728ZM58.8167 27.036H46.2167V1.8H58.8167C65.7647 1.8 71.4167 7.488 71.4167 14.436C71.4167 21.384 65.7647 27.036 58.8167 27.036ZM76.3504 5.004C81.5344 -0.180002 89.9224 -0.180002 95.1064 5.004L85.7104 14.364L95.1064 23.76C89.9224 28.944 81.5344 28.944 76.3504 23.76C71.1664 18.576 71.1664 10.188 76.3504 5.004Z" fill="#203844"/>
</g>
<defs>
<clipPath id="clip0_653_1396">
<rect width="96" height="29" fill="white"/>
</clipPath>
</defs>
</svg>
