<svg width="311" height="30" viewBox="0 0 311 30" fill="none" xmlns="http://www.w3.org/2000/svg">
<path d="M0.971591 1.36364H4.80398L12.4688 14.2642H12.7926L20.4574 1.36364H24.2898L14.304 17.6108V29H10.9574V17.6108L0.971591 1.36364ZM26.9313 29H23.4228L33.5705 1.36364H37.025L47.1728 29H43.6642L35.4057 5.73579H35.1898L26.9313 29ZM28.2267 18.2045H42.3688V21.1733H28.2267V18.2045ZM73.3922 1.36364V29H70.1536L55.0939 7.30114H54.824V29H51.4775V1.36364H54.7161L69.8297 23.1165H70.0996V1.36364H73.3922ZM81.2223 29H77.7138L87.8615 1.36364H91.3161L101.464 29H97.9553L89.6967 5.73579H89.4808L81.2223 29ZM82.5178 18.2045H96.6598V21.1733H82.5178V18.2045ZM119.803 1.36364V29H116.456V1.36364H119.803ZM148.427 1.36364V29H145.189L130.129 7.30114H129.859V29H126.513V1.36364H129.751L144.865 23.1165H145.135V1.36364H148.427ZM153.613 4.33239V1.36364H174.34V4.33239H165.65V29H162.303V4.33239H153.613ZM179.505 29V1.36364H196.184V4.33239H182.851V13.6705H195.32V16.6392H182.851V26.0312H196.4V29H179.505ZM202.216 29V1.36364H211.554C213.713 1.36364 215.485 1.73248 216.871 2.47017C218.256 3.19886 219.282 4.20194 219.947 5.4794C220.613 6.75687 220.946 8.20975 220.946 9.83807C220.946 11.4664 220.613 12.9103 219.947 14.1697C219.282 15.4292 218.26 16.4188 216.884 17.1385C215.508 17.8492 213.749 18.2045 211.608 18.2045H204.051V15.1818H211.5C212.975 15.1818 214.163 14.9659 215.062 14.5341C215.971 14.1023 216.628 13.4905 217.032 12.6989C217.446 11.8982 217.653 10.9446 217.653 9.83807C217.653 8.73153 217.446 7.76444 217.032 6.93679C216.619 6.10914 215.957 5.47041 215.049 5.0206C214.14 4.56179 212.939 4.33239 211.446 4.33239H205.562V29H202.216ZM215.224 16.5852L222.025 29H218.139L211.446 16.5852H215.224ZM229.869 1.36364V29H226.522V1.36364H229.869ZM259.897 15.1818C259.897 18.0966 259.371 20.6155 258.318 22.7386C257.266 24.8617 255.822 26.4991 253.987 27.6506C252.151 28.8021 250.055 29.3778 247.698 29.3778C245.341 29.3778 243.245 28.8021 241.41 27.6506C239.575 26.4991 238.131 24.8617 237.078 22.7386C236.026 20.6155 235.499 18.0966 235.499 15.1818C235.499 12.267 236.026 9.74811 237.078 7.625C238.131 5.50189 239.575 3.86458 241.41 2.71307C243.245 1.56155 245.341 0.985794 247.698 0.985794C250.055 0.985794 252.151 1.56155 253.987 2.71307C255.822 3.86458 257.266 5.50189 258.318 7.625C259.371 9.74811 259.897 12.267 259.897 15.1818ZM256.659 15.1818C256.659 12.7888 256.258 10.7692 255.458 9.12287C254.666 7.47656 253.591 6.23059 252.232 5.38494C250.883 4.5393 249.372 4.11648 247.698 4.11648C246.025 4.11648 244.509 4.5393 243.151 5.38494C241.801 6.23059 240.726 7.47656 239.926 9.12287C239.134 10.7692 238.738 12.7888 238.738 15.1818C238.738 17.5748 239.134 19.5945 239.926 21.2408C240.726 22.8871 241.801 24.133 243.151 24.9787C244.509 25.8243 246.025 26.2472 247.698 26.2472C249.372 26.2472 250.883 25.8243 252.232 24.9787C253.591 24.133 254.666 22.8871 255.458 21.2408C256.258 19.5945 256.659 17.5748 256.659 15.1818ZM265.524 29V1.36364H274.862C277.021 1.36364 278.794 1.73248 280.179 2.47017C281.565 3.19886 282.59 4.20194 283.256 5.4794C283.922 6.75687 284.254 8.20975 284.254 9.83807C284.254 11.4664 283.922 12.9103 283.256 14.1697C282.59 15.4292 281.569 16.4188 280.193 17.1385C278.816 17.8492 277.057 18.2045 274.916 18.2045H267.36V15.1818H274.808C276.284 15.1818 277.471 14.9659 278.371 14.5341C279.28 14.1023 279.936 13.4905 280.341 12.6989C280.755 11.8982 280.962 10.9446 280.962 9.83807C280.962 8.73153 280.755 7.76444 280.341 6.93679C279.927 6.10914 279.266 5.47041 278.357 5.0206C277.449 4.56179 276.248 4.33239 274.754 4.33239H268.871V29H265.524ZM278.533 16.5852L285.334 29H281.448L274.754 16.5852H278.533ZM304.945 8.27273C304.783 6.9053 304.126 5.84375 302.974 5.08807C301.823 4.33239 300.411 3.95454 298.737 3.95454C297.514 3.95454 296.443 4.15246 295.526 4.54829C294.617 4.94413 293.906 5.4884 293.393 6.18111C292.89 6.87382 292.638 7.66098 292.638 8.54261C292.638 9.2803 292.813 9.91453 293.164 10.4453C293.524 10.9671 293.983 11.4034 294.54 11.7543C295.098 12.0961 295.683 12.3795 296.295 12.6044C296.906 12.8203 297.469 12.9957 297.982 13.1307L300.788 13.8864C301.508 14.0753 302.309 14.3362 303.19 14.669C304.081 15.0019 304.931 15.4562 305.741 16.032C306.559 16.5987 307.234 17.3274 307.765 18.218C308.296 19.1087 308.561 20.2017 308.561 21.4972C308.561 22.9905 308.17 24.34 307.387 25.5455C306.613 26.7509 305.48 27.709 303.987 28.4197C302.502 29.1304 300.698 29.4858 298.575 29.4858C296.596 29.4858 294.882 29.1664 293.434 28.5277C291.995 27.889 290.861 26.9983 290.033 25.8558C289.215 24.7133 288.751 23.3864 288.643 21.875H292.098C292.188 22.9186 292.539 23.7822 293.151 24.4659C293.771 25.1406 294.554 25.6444 295.499 25.9773C296.452 26.3011 297.478 26.4631 298.575 26.4631C299.853 26.4631 301 26.2562 302.016 25.8423C303.033 25.4195 303.838 24.8348 304.432 24.0881C305.026 23.3324 305.322 22.4508 305.322 21.4432C305.322 20.5256 305.066 19.7789 304.553 19.2031C304.04 18.6274 303.366 18.1596 302.529 17.7997C301.692 17.4399 300.788 17.125 299.817 16.8551L296.416 15.8835C294.257 15.2628 292.548 14.3767 291.288 13.2251C290.029 12.0736 289.399 10.5668 289.399 8.70454C289.399 7.1572 289.817 5.80776 290.654 4.65625C291.5 3.49574 292.633 2.59612 294.055 1.95739C295.485 1.30966 297.082 0.985794 298.845 0.985794C300.626 0.985794 302.21 1.30516 303.595 1.94389C304.981 2.57363 306.078 3.43726 306.888 4.5348C307.706 5.63234 308.138 6.87831 308.183 8.27273H304.945Z" fill="#203844"/>
</svg>
